G04 (created by PCBNEW (2013-05-16 BZR 4016)-stable) date 5/21/2013 11:08:07 PM*
%MOIN*%
G04 Gerber Fmt 3.4, Leading zero omitted, Abs format*
%FSLAX34Y34*%
G01*
G70*
G90*
G04 APERTURE LIST*
%ADD10C,0.00590551*%
%ADD11R,0.075X0.025*%
%ADD12R,0.06X0.03*%
%ADD13C,0.05*%
%ADD14C,0.015*%
G04 APERTURE END LIST*
G54D10*
G54D11*
X-1125Y1250D03*
X-1125Y750D03*
X-1125Y250D03*
X-1125Y-250D03*
X1125Y-250D03*
X1125Y250D03*
X1125Y750D03*
X1125Y1250D03*
G54D12*
X-1000Y-1600D03*
X-1000Y-2400D03*
X1000Y-1600D03*
X1000Y-2400D03*
X-4500Y2100D03*
X-4500Y2900D03*
X4500Y2100D03*
X4500Y2900D03*
X750Y2350D03*
X750Y3150D03*
X-750Y3150D03*
X-750Y2350D03*
X-2500Y100D03*
X-2500Y900D03*
X2500Y100D03*
X2500Y900D03*
G54D13*
X0Y-4880D03*
X-3250Y2900D03*
X3500Y3750D03*
G54D14*
X1000Y-2400D02*
X1000Y-3880D01*
X1000Y-3880D02*
X0Y-4880D01*
X-1000Y-2400D02*
X-1000Y-3880D01*
X-1000Y-3880D02*
X0Y-4880D01*
X4500Y2900D02*
X5000Y2900D01*
X-1125Y1675D02*
X-2050Y2600D01*
X5000Y2900D02*
X5150Y2750D01*
X5150Y2750D02*
X5150Y1100D01*
X5150Y1100D02*
X1650Y-2400D01*
X1650Y-2400D02*
X1000Y-2400D01*
X-2050Y2600D02*
X-2350Y2900D01*
X-2350Y2900D02*
X-3250Y2900D01*
X-1125Y1250D02*
X-1125Y1675D01*
X-5450Y1650D02*
X-5450Y3300D01*
X-1800Y-2000D02*
X-5450Y1650D01*
X750Y2350D02*
X150Y2350D01*
X-1620Y3080D02*
X-1620Y3510D01*
X-1290Y2750D02*
X-1620Y3080D01*
X-250Y2750D02*
X-1290Y2750D01*
X150Y2350D02*
X-250Y2750D01*
X1340Y3510D02*
X3260Y3510D01*
X3260Y3510D02*
X3500Y3750D01*
X-1620Y3510D02*
X1340Y3510D01*
X-2320Y3700D02*
X-2130Y3510D01*
X-5050Y3700D02*
X-2320Y3700D01*
X-5450Y3300D02*
X-5050Y3700D01*
X-500Y-250D02*
X-1125Y-250D01*
X-450Y-2000D02*
X-1800Y-2000D01*
X-200Y-1750D02*
X-450Y-2000D01*
X-200Y-550D02*
X-200Y-1750D01*
X-500Y-250D02*
X-200Y-550D01*
X-2130Y3510D02*
X-1620Y3510D01*
X1125Y1250D02*
X1125Y1565D01*
X750Y1940D02*
X750Y2350D01*
X1125Y1565D02*
X750Y1940D01*
X-2500Y100D02*
X-2500Y-150D01*
X-2500Y-150D02*
X-2400Y-250D01*
X-2400Y-250D02*
X-1125Y-250D01*
X1125Y-250D02*
X1125Y-875D01*
X1000Y-1000D02*
X1000Y-1600D01*
X1125Y-875D02*
X1000Y-1000D01*
X4500Y2100D02*
X4500Y1500D01*
X3800Y800D02*
X2500Y800D01*
X4500Y1500D02*
X3800Y800D01*
X-3740Y900D02*
X-4500Y1660D01*
X-4500Y2100D02*
X-4500Y1660D01*
X-2500Y900D02*
X-3740Y900D01*
X-1950Y950D02*
X-1950Y1180D01*
X-1700Y250D02*
X-1950Y500D01*
X-1950Y500D02*
X-1950Y950D01*
X-4500Y2900D02*
X-3900Y2900D01*
X-1700Y250D02*
X-1125Y250D01*
X-3240Y2240D02*
X-3900Y2900D01*
X-3010Y2240D02*
X-3240Y2240D01*
X-1950Y1180D02*
X-3010Y2240D01*
X200Y-450D02*
X200Y-1750D01*
X450Y-2000D02*
X1600Y-2000D01*
X-500Y250D02*
X-1125Y250D01*
X2500Y200D02*
X2500Y-1100D01*
X1600Y-2000D02*
X2500Y-1100D01*
X-500Y250D02*
X0Y-250D01*
X0Y-250D02*
X200Y-450D01*
X200Y-1750D02*
X450Y-2000D01*
X-3950Y3400D02*
X-2420Y3400D01*
X-1750Y-1600D02*
X-5150Y1800D01*
X-5150Y1800D02*
X-5150Y3150D01*
X-5150Y3150D02*
X-4900Y3400D01*
X-4900Y3400D02*
X-3950Y3400D01*
X-1000Y-1600D02*
X-1750Y-1600D01*
X-1370Y2350D02*
X-750Y2350D01*
X-2420Y3400D02*
X-1370Y2350D01*
X-750Y2350D02*
X-750Y1940D01*
X-300Y1490D02*
X-300Y1000D01*
X-750Y1940D02*
X-300Y1490D01*
X-300Y1000D02*
X-550Y750D01*
X-550Y750D02*
X-1125Y750D01*
X450Y250D02*
X-300Y1000D01*
X1125Y250D02*
X450Y250D01*
X750Y3150D02*
X1450Y3150D01*
X1720Y750D02*
X1125Y750D01*
X1830Y860D02*
X1720Y750D01*
X1830Y2770D02*
X1830Y860D01*
X1450Y3150D02*
X1830Y2770D01*
X-750Y3150D02*
X750Y3150D01*
M02*
